<svg xmlns="http://www.w3.org/2000/svg" width="459" height="108" viewBox="0 0 459 108" fill="none"><path fill-rule="evenodd" clip-rule="evenodd" d="M6.27002 106.803L7.50802 104.653L15.2268 90.1175L16.0471 88.4871C16.2864 88.0131 16.6174 87.3254 17.0456 86.4286C18.7983 86.4493 20.0771 86.4593 20.8822 86.4593C22.2883 86.4593 23.582 86.4486 24.7796 86.4286L26.9602 92.6547L31.3927 104.622L32.2587 106.803C30.5367 106.783 29.4923 106.772 29.1255 106.772C28.2896 106.772 27.0619 106.783 25.4366 106.803C24.9988 105.162 24.367 103.231 23.5412 101.015H16.0163C15.1503 102.768 14.2535 104.693 13.3264 106.803C11.4769 106.783 10.3459 106.772 9.92828 106.772C9.16895 106.772 7.95135 106.783 6.27002 106.803ZM17.825 96.6691H22.4666C21.3099 93.159 20.6782 91.2229 20.5712 90.8662C19.9138 92.3282 19.3536 93.5258 18.9002 94.4634L17.825 96.6691ZM45.8107 94.9218C47.176 94.9421 48.4754 94.9521 49.7083 94.9521C51.8172 94.9521 53.4732 94.9427 54.6652 94.9218C54.5328 96.2871 54.4003 98.2127 54.2678 100.715C54.1303 103.211 54.0491 105.096 54.0184 106.37C52.8772 106.579 51.9295 106.731 51.1754 106.823C50.4267 106.92 49.5198 107.001 48.4648 107.078C47.4104 107.154 46.4728 107.19 45.6475 107.19C44.2923 107.19 42.9627 107.083 41.6583 106.864C40.354 106.645 39.1872 106.288 38.1583 105.804C37.1291 105.315 36.2731 104.653 35.5854 103.817C34.8976 102.982 34.3676 101.993 33.9959 100.847C33.624 99.7005 33.4351 98.5186 33.4351 97.2958C33.4351 95.273 33.9399 93.3983 34.9435 91.6662C35.9471 89.9391 37.394 88.5683 39.2788 87.5546C41.1642 86.5459 43.6045 86.0417 46.5902 86.0417C48.7707 86.0417 51.1804 86.3062 53.8299 86.8311C53.8299 88.2831 53.8959 89.8983 54.0234 91.6814C53.305 91.4421 52.7291 91.2637 52.2863 91.1362C51.843 91.0138 51.3229 90.8969 50.732 90.7951C50.1411 90.6878 49.5758 90.6113 49.0458 90.5654C48.5107 90.5146 48.0371 90.4893 47.6195 90.4893C46.5236 90.4893 45.4898 90.647 44.5115 90.9579C43.5382 91.2738 42.6978 91.7579 41.9999 92.4049C41.2966 93.0567 40.7716 93.8366 40.4255 94.7435C40.0739 95.6503 39.9006 96.6031 39.9006 97.6067C39.9006 98.6359 40.0995 99.5478 40.4966 100.347C40.894 101.148 41.5259 101.759 42.3919 102.177C43.258 102.594 44.2263 102.804 45.2908 102.804C46.1775 102.804 47.1454 102.676 48.1999 102.416L48.3682 99.1761C47.7212 99.1453 47.3388 99.1302 47.217 99.1302L45.6324 99.1453L45.7392 97.311C45.7446 97.1125 45.7599 96.8222 45.78 96.4499C45.8002 96.0781 45.8107 95.5687 45.8107 94.9218ZM57.6458 106.803C57.8343 105.05 57.9874 103.476 58.0942 102.07C58.2066 100.669 58.3032 99.0435 58.3794 97.189C58.461 95.3395 58.5224 93.3882 58.5632 91.3297C58.5986 89.2766 58.6191 87.6413 58.6191 86.4286C59.862 86.4593 60.8707 86.4745 61.635 86.4745C62.43 86.4745 63.4028 86.4493 64.5444 86.4085C65.6907 86.3626 66.8011 86.3369 67.8863 86.3369C69.1604 86.3369 70.2966 86.3878 71.29 86.4895C72.0387 86.5561 72.7163 86.7037 73.3279 86.9229C73.9391 87.1419 74.4535 87.407 74.8716 87.7178C75.2892 88.0337 75.641 88.3849 75.916 88.7723C76.1962 89.1593 76.4103 89.6127 76.568 90.1377C76.7207 90.6571 76.7972 91.2178 76.7972 91.8138C76.7972 92.4814 76.7106 93.1081 76.5427 93.6886C76.3746 94.2694 76.1095 94.8197 75.7427 95.3294C75.381 95.8438 74.9226 96.2871 74.3723 96.659C73.8218 97.0309 73.0474 97.4133 72.0488 97.8002L72.8287 99.6955C73.0474 100.226 73.282 100.76 73.5315 101.311L75.5286 105.682C75.6203 105.87 75.7784 106.248 76.0078 106.803C74.3672 106.783 73.2615 106.772 72.6962 106.772C71.9778 106.772 70.8059 106.783 69.1755 106.803C69.0123 106.283 68.7271 105.325 68.3044 103.924C68.1362 103.333 67.9936 102.885 67.8712 102.564C67.6319 101.856 67.2802 100.867 66.8116 99.5937L65.273 95.3702C65.8131 95.467 66.3376 95.5179 66.8575 95.5179C67.581 95.5179 68.243 95.4106 68.834 95.1919C69.425 94.9727 69.8734 94.6311 70.1791 94.1727C70.4799 93.7142 70.6325 93.2351 70.6325 92.7258C70.6325 92.2981 70.5207 91.9207 70.2915 91.5998C70.0618 91.2738 69.7 91.0345 69.2063 90.8763C68.7171 90.7186 67.9578 90.637 66.9336 90.637C66.5824 90.637 66.2258 90.6423 65.8484 90.6571C65.4766 90.6727 65.0438 90.6878 64.5444 90.6979C64.417 92.7358 64.2996 95.2222 64.203 98.1619C64.1011 101.097 64.0347 103.975 64.0044 106.803C62.3433 106.783 61.2632 106.772 60.769 106.772C60.188 106.772 59.1487 106.783 57.6458 106.803ZM79.156 106.803C79.7319 98.8143 80.0221 92.6647 80.0221 88.3546L80.007 86.4286C81.7496 86.4493 82.911 86.4593 83.497 86.4593C83.767 86.4593 84.837 86.4486 86.7067 86.4286C86.5283 88.6655 86.3857 90.7846 86.2733 92.7871C86.1359 95.5738 86.0391 98.1775 85.9782 100.602C85.9172 103.023 85.8915 105.091 85.8915 106.803L82.8294 106.772C82.2334 106.772 81.0055 106.783 79.156 106.803ZM107.188 101.83C107.071 102.416 106.923 103.236 106.755 104.286C106.587 105.336 106.475 106.151 106.413 106.726C104.284 107.037 102.383 107.19 100.713 107.19C99.0974 107.19 97.5996 106.986 96.2085 106.584C94.8231 106.181 93.549 105.519 92.3876 104.602C91.231 103.68 90.4006 102.599 89.9064 101.357C89.4071 100.108 89.1572 98.7171 89.1572 97.1734C89.1572 95.3753 89.4938 93.755 90.1663 92.3182C90.839 90.8813 91.8018 89.6791 93.0602 88.7214C94.3183 87.7582 95.6992 87.0755 97.202 86.6629C98.705 86.2502 100.254 86.0417 101.859 86.0417C103.331 86.0417 105.15 86.2301 107.32 86.607L107.351 87.8605C107.371 88.4106 107.402 89.0117 107.437 89.6691L107.544 91.3705C106.383 91.0903 105.44 90.9019 104.717 90.8002C103.993 90.7034 103.326 90.6521 102.71 90.6521C101.37 90.6521 100.157 90.9221 99.0823 91.4571C98.0122 91.9973 97.1663 92.7766 96.5502 93.8009C95.9335 94.8251 95.6226 95.9613 95.6226 97.2042C95.6226 98.3402 95.8826 99.3086 96.397 100.124C96.917 100.933 97.6147 101.56 98.4963 102.003C99.3775 102.447 100.463 102.666 101.757 102.666C102.46 102.666 103.229 102.61 104.059 102.493C104.89 102.38 105.935 102.156 107.188 101.83ZM110.932 86.4286C112.481 86.4493 113.576 86.4593 114.213 86.4593C115.008 86.4593 116.068 86.4486 117.392 86.4286L116.944 92.7717C116.858 93.9641 116.786 95.0846 116.745 96.129C116.7 97.1734 116.679 97.8969 116.679 98.2943C116.679 99.0486 116.73 99.6854 116.842 100.19C116.949 100.699 117.148 101.127 117.438 101.484C117.729 101.835 118.126 102.1 118.641 102.278C119.15 102.457 119.685 102.549 120.245 102.549C120.719 102.549 121.168 102.483 121.586 102.355C121.917 102.248 122.207 102.1 122.467 101.907C122.696 101.733 122.895 101.524 123.063 101.285C123.272 101.005 123.455 100.648 123.618 100.22C123.776 99.8179 123.893 99.2979 123.975 98.6561C124.067 98.0042 124.184 96.5215 124.332 94.2135C124.464 92.2471 124.561 90.4435 124.632 88.8081C124.694 87.2237 124.744 86.4286 124.795 86.4286C126.298 86.4286 127.48 86.4286 128.346 86.4286H131.378L130.649 97.0258C130.638 97.2247 130.634 97.3875 130.634 97.5201C130.593 99.5886 130.466 101.046 130.252 101.897C130.038 102.747 129.681 103.486 129.182 104.118C128.688 104.745 127.959 105.305 127.007 105.809C126.049 106.314 124.964 106.665 123.751 106.874C122.538 107.083 121.305 107.19 120.062 107.19C118.952 107.19 117.877 107.109 116.842 106.95C115.884 106.793 115.023 106.558 114.259 106.258C113.49 105.952 112.822 105.6 112.257 105.188C111.737 104.811 111.34 104.429 111.065 104.031C110.784 103.639 110.566 103.17 110.407 102.625C110.229 102.003 110.137 101.346 110.137 100.638C110.137 100.399 110.147 100.037 110.168 99.5579C110.188 99.0738 110.234 98.381 110.301 97.4742L110.499 95.0846C110.545 94.4579 110.601 93.5359 110.662 92.3233L110.932 86.4286ZM133.65 106.803C133.9 104.454 134.078 102.538 134.185 101.056C134.394 98.3503 134.552 95.6605 134.654 92.9907C134.761 90.3161 134.812 88.1305 134.812 86.4286C136.167 86.4493 137.364 86.4593 138.409 86.4593C139.117 86.4593 140.131 86.4486 141.455 86.4286L141.099 91.8341L140.65 100.281L140.589 102.355C142.301 102.385 143.417 102.401 143.937 102.401C146.55 102.401 148.532 102.365 149.877 102.294L149.551 106.803C146.932 106.783 144.441 106.772 142.072 106.772C138.867 106.772 136.06 106.783 133.65 106.803ZM156.251 106.803C156.75 101.968 157.046 96.6439 157.148 90.8305L150.789 90.9937L150.861 89.3377C150.901 88.4514 150.932 87.4831 150.952 86.4286C153.78 86.4493 157.071 86.4593 160.831 86.4593L164.52 86.4438H168.101L170.043 86.4286L169.951 87.8907C169.91 88.6755 169.884 89.3225 169.869 89.8319C169.854 90.3467 169.849 90.7337 169.849 90.9937C167.719 90.8869 165.962 90.8305 164.581 90.8305H163.536C163.389 92.5882 163.271 94.2135 163.195 95.7013C163.083 97.8359 162.996 99.9095 162.94 101.922C162.879 103.935 162.849 105.56 162.849 106.803C161.218 106.783 160.164 106.772 159.685 106.772C159.257 106.772 158.11 106.783 156.251 106.803ZM172.015 86.4286C173.563 86.4493 174.659 86.4593 175.295 86.4593C176.09 86.4593 177.15 86.4486 178.474 86.4286L178.027 92.7717C177.94 93.9641 177.868 95.0846 177.827 96.129C177.782 97.1734 177.761 97.8969 177.761 98.2943C177.761 99.0486 177.812 99.6854 177.924 100.19C178.032 100.699 178.23 101.127 178.52 101.484C178.811 101.835 179.208 102.1 179.723 102.278C180.232 102.457 180.767 102.549 181.327 102.549C181.802 102.549 182.25 102.483 182.668 102.355C182.999 102.248 183.289 102.1 183.549 101.907C183.779 101.733 183.977 101.524 184.145 101.285C184.354 101.005 184.537 100.648 184.701 100.22C184.858 99.8179 184.976 99.2979 185.057 98.6561C185.149 98.0042 185.266 96.5215 185.414 94.2135C185.546 92.2471 185.643 90.4435 185.714 88.8081C185.776 87.2237 185.827 86.4286 185.877 86.4286C187.38 86.4286 188.562 86.4286 189.428 86.4286H192.46L191.731 97.0258C191.721 97.2247 191.716 97.3875 191.716 97.5201C191.675 99.5886 191.548 101.046 191.334 101.897C191.12 102.747 190.763 103.486 190.264 104.118C189.77 104.745 189.041 105.305 188.089 105.809C187.131 106.314 186.046 106.665 184.833 106.874C183.62 107.083 182.388 107.19 181.144 107.19C180.034 107.19 178.959 107.109 177.924 106.95C176.967 106.793 176.105 106.558 175.341 106.258C174.572 105.952 173.904 105.6 173.339 105.188C172.82 104.811 172.422 104.429 172.147 104.031C171.866 103.639 171.648 103.17 171.49 102.625C171.311 102.003 171.22 101.346 171.22 100.638C171.22 100.399 171.229 100.037 171.25 99.5579C171.27 99.0738 171.316 98.381 171.383 97.4742L171.581 95.0846C171.627 94.4579 171.683 93.5359 171.745 92.3233L172.015 86.4286ZM194.849 106.803C195.038 105.05 195.191 103.476 195.298 102.07C195.41 100.669 195.507 99.0435 195.583 97.189C195.665 95.3395 195.726 93.3882 195.767 91.3297C195.802 89.2766 195.823 87.6413 195.823 86.4286C197.066 86.4593 198.074 86.4745 198.839 86.4745C199.633 86.4745 200.606 86.4493 201.748 86.4085C202.894 86.3626 204.005 86.3369 205.09 86.3369C206.364 86.3369 207.5 86.3878 208.493 86.4895C209.242 86.5561 209.92 86.7037 210.532 86.9229C211.143 87.1419 211.657 87.407 212.075 87.7178C212.493 88.0337 212.844 88.3849 213.119 88.7723C213.4 89.1593 213.614 89.6127 213.771 90.1377C213.924 90.6571 214.001 91.2178 214.001 91.8138C214.001 92.4814 213.914 93.1081 213.746 93.6886C213.578 94.2694 213.313 94.8197 212.946 95.3294C212.585 95.8438 212.126 96.2871 211.576 96.659C211.025 97.0309 210.251 97.4133 209.252 97.8002L210.032 99.6955C210.251 100.226 210.486 100.76 210.735 101.311L212.732 105.682C212.824 105.87 212.982 106.248 213.211 106.803C211.571 106.783 210.465 106.772 209.9 106.772C209.181 106.772 208.009 106.783 206.379 106.803C206.216 106.283 205.931 105.325 205.508 103.924C205.34 103.333 205.197 102.885 205.075 102.564C204.835 101.856 204.484 100.867 204.015 99.5937L202.477 95.3702C203.017 95.467 203.541 95.5179 204.061 95.5179C204.784 95.5179 205.447 95.4106 206.037 95.1919C206.628 94.9727 207.077 94.6311 207.383 94.1727C207.683 93.7142 207.836 93.2351 207.836 92.7258C207.836 92.2981 207.724 91.9207 207.495 91.5998C207.265 91.2738 206.903 91.0345 206.41 90.8763C205.921 90.7186 205.161 90.637 204.137 90.637C203.786 90.637 203.429 90.6423 203.052 90.6571C202.68 90.6727 202.247 90.6878 201.748 90.6979C201.621 92.7358 201.503 95.2222 201.406 98.1619C201.305 101.097 201.238 103.975 201.208 106.803C199.547 106.783 198.467 106.772 197.972 106.772C197.392 106.772 196.352 106.783 194.849 106.803ZM213.629 106.803L214.867 104.653L222.586 90.1175L223.406 88.4871C223.645 88.0131 223.976 87.3254 224.404 86.4286C226.157 86.4493 227.436 86.4593 228.241 86.4593C229.647 86.4593 230.941 86.4486 232.138 86.4286L234.319 92.6547L238.752 104.622L239.617 106.803C237.895 106.783 236.851 106.772 236.484 106.772C235.649 106.772 234.421 106.783 232.795 106.803C232.358 105.162 231.726 103.231 230.9 101.015H223.375C222.509 102.768 221.612 104.693 220.685 106.803C218.836 106.783 217.705 106.772 217.287 106.772C216.528 106.772 215.31 106.783 213.629 106.803ZM225.184 96.6691H229.825C228.669 93.159 228.037 91.2229 227.93 90.8662C227.273 92.3282 226.712 93.5258 226.259 94.4634L225.184 96.6691ZM248.854 106.803C249.073 104.536 249.221 102.717 249.303 101.357C249.42 99.3237 249.542 96.6998 249.659 93.4749C249.751 91.0037 249.792 89.2409 249.792 88.1763V86.4286C250.958 86.4593 251.962 86.4745 252.808 86.4745C253.623 86.4745 254.693 86.4493 256.018 86.4085C257.342 86.3626 258.586 86.3369 259.752 86.3369C261.082 86.3369 262.254 86.4185 263.257 86.5762C264.261 86.7394 265.199 87.0654 266.07 87.5647C266.941 88.059 267.669 88.7114 268.26 89.5159C268.846 90.3261 269.295 91.2687 269.6 92.3489C269.911 93.429 270.064 94.5395 270.064 95.6806C270.064 96.8066 269.947 97.8918 269.707 98.9313C269.468 99.9706 269.131 100.908 268.704 101.744C268.275 102.579 267.776 103.298 267.206 103.899C266.635 104.5 265.978 105.015 265.244 105.442C264.694 105.763 264.144 106.013 263.588 106.192C263.028 106.37 262.269 106.513 261.301 106.624C260.226 106.742 259.008 106.803 257.648 106.803L251.616 106.757C251.05 106.757 250.128 106.772 248.854 106.803ZM255.304 102.309C255.849 102.36 256.425 102.385 257.021 102.385C258.035 102.385 258.937 102.294 259.737 102.116C260.531 101.937 261.23 101.555 261.831 100.969C262.432 100.378 262.875 99.6239 263.166 98.707C263.456 97.785 263.599 96.8425 263.599 95.8797C263.599 94.6926 263.384 93.6941 262.957 92.8839C262.529 92.0738 261.958 91.5081 261.25 91.1922C260.537 90.8713 259.569 90.7135 258.346 90.7135C257.627 90.7135 256.782 90.7438 255.809 90.8002L255.304 102.309ZM272.453 106.803C272.703 104.235 272.886 102.085 272.999 100.353C273.11 98.6254 273.228 96.323 273.34 93.4493C273.457 90.581 273.513 88.6755 273.513 87.743L273.498 86.4286C275.847 86.4493 278.689 86.4593 282.021 86.4593C285.094 86.4593 287.804 86.4486 290.152 86.4286L290.122 86.9229C290.111 87.0402 290.086 87.473 290.051 88.2222L289.959 89.8474C289.939 90.1937 289.928 90.5453 289.928 90.907C288.008 90.8254 286.398 90.7846 285.094 90.7846C283.662 90.7846 282.694 90.7899 282.19 90.7953C281.69 90.8006 280.905 90.8205 279.841 90.8613L279.658 94.2797C280.834 94.3103 282.2 94.3255 283.764 94.3255C284.319 94.3255 285.801 94.2902 288.212 94.2187C288.109 95.4923 288.018 97.0107 287.926 98.7686C286.209 98.7479 284.885 98.7379 283.957 98.7379C282.587 98.7379 281.048 98.7737 279.347 98.8447L279.168 102.472H280.885C281.395 102.472 282.444 102.457 284.034 102.426L287.122 102.35C287.58 102.345 288.344 102.304 289.419 102.233C289.302 103.705 289.2 105.228 289.119 106.803C286.693 106.783 284.034 106.772 281.14 106.772L274.573 106.788L272.453 106.803ZM300.322 106.803L300.618 102.982L301.005 95.5179L301.173 90.2345C301.182 89.6691 301.188 89.0983 301.188 88.533C301.188 88.1047 301.183 87.4019 301.173 86.4286C302.482 86.4593 303.537 86.4745 304.337 86.4745C305.101 86.4745 306.15 86.4493 307.485 86.4085C308.82 86.3626 309.946 86.3369 310.873 86.3369C312.208 86.3369 313.197 86.4235 313.839 86.5918C314.475 86.7597 315.056 87.0297 315.576 87.3914C316.09 87.7531 316.518 88.1814 316.86 88.6655C317.196 89.1542 317.451 89.7099 317.619 90.3311C317.787 90.9529 317.874 91.5897 317.874 92.2366C317.874 93.5666 317.553 94.7894 316.905 95.8947C316.258 96.9951 315.347 97.8207 314.17 98.371C312.998 98.9161 311.678 99.1911 310.216 99.1911C309.681 99.1911 309.06 99.1302 308.352 99.0129C308.27 98.5543 308.122 97.8717 307.903 96.9698C307.684 96.063 307.506 95.3905 307.368 94.9521C307.806 95.0387 308.265 95.0846 308.739 95.0846C309.747 95.0846 310.491 94.8453 310.986 94.3611C311.48 93.8774 311.724 93.2865 311.724 92.5933C311.724 92.2522 311.668 91.9514 311.561 91.6914C311.449 91.4265 311.276 91.2078 311.036 91.0395C310.797 90.8713 310.537 90.7594 310.246 90.7135C309.956 90.6626 309.63 90.637 309.264 90.637C308.902 90.637 308.53 90.6463 308.143 90.6677L306.889 90.7543C306.762 92.6749 306.66 94.8095 306.589 97.1583C306.461 101.438 306.395 104.006 306.395 104.862V106.803L303.425 106.772C303.007 106.772 301.973 106.783 300.322 106.803ZM319.738 106.803C319.927 105.05 320.08 103.476 320.187 102.07C320.299 100.669 320.396 99.0435 320.472 97.189C320.553 95.3395 320.615 93.3882 320.656 91.3297C320.691 89.2766 320.712 87.6413 320.712 86.4286C321.955 86.4593 322.963 86.4745 323.727 86.4745C324.522 86.4745 325.495 86.4493 326.637 86.4085C327.783 86.3626 328.893 86.3369 329.979 86.3369C331.253 86.3369 332.389 86.3878 333.382 86.4895C334.131 86.5561 334.809 86.7037 335.42 86.9229C336.031 87.1419 336.546 87.407 336.964 87.7178C337.382 88.0337 337.733 88.3849 338.008 88.7723C338.289 89.1593 338.503 89.6127 338.66 90.1377C338.813 90.6571 338.89 91.2178 338.89 91.8138C338.89 92.4814 338.803 93.1081 338.635 93.6886C338.467 94.2694 338.202 94.8197 337.835 95.3294C337.473 95.8438 337.015 96.2871 336.465 96.659C335.914 97.0309 335.14 97.4133 334.141 97.8002L334.921 99.6955C335.14 100.226 335.375 100.76 335.624 101.311L337.621 105.682C337.713 105.87 337.871 106.248 338.1 106.803C336.46 106.783 335.354 106.772 334.789 106.772C334.07 106.772 332.898 106.783 331.268 106.803C331.105 106.283 330.82 105.325 330.397 103.924C330.229 103.333 330.086 102.885 329.964 102.564C329.724 101.856 329.373 100.867 328.904 99.5937L327.365 95.3702C327.905 95.467 328.43 95.5179 328.95 95.5179C329.673 95.5179 330.335 95.4106 330.926 95.1919C331.517 94.9727 331.966 94.6311 332.271 94.1727C332.572 93.7142 332.725 93.2351 332.725 92.7258C332.725 92.2981 332.613 91.9207 332.384 91.5998C332.154 91.2738 331.792 91.0345 331.299 90.8763C330.81 90.7186 330.05 90.637 329.026 90.637C328.675 90.637 328.318 90.6423 327.941 90.6571C327.569 90.6727 327.136 90.6878 326.637 90.6979C326.51 92.7358 326.392 95.2222 326.295 98.1619C326.194 101.097 326.127 103.975 326.097 106.803C324.436 106.783 323.356 106.772 322.861 106.772C322.28 106.772 321.241 106.783 319.738 106.803ZM341.172 106.803C341.422 104.235 341.605 102.085 341.717 100.353C341.829 98.6254 341.947 96.323 342.059 93.4493C342.176 90.581 342.232 88.6755 342.232 87.743L342.217 86.4286C344.566 86.4493 347.408 86.4593 350.74 86.4593C353.813 86.4593 356.523 86.4486 358.871 86.4286L358.841 86.9229C358.83 87.0402 358.805 87.473 358.77 88.2222L358.678 89.8474C358.658 90.1937 358.647 90.5453 358.647 90.907C356.727 90.8254 355.117 90.7846 353.813 90.7846C352.381 90.7846 351.413 90.7899 350.909 90.7953C350.409 90.8006 349.624 90.8205 348.56 90.8613L348.376 94.2797C349.553 94.3103 350.919 94.3255 352.482 94.3255C353.038 94.3255 354.52 94.2902 356.931 94.2187C356.828 95.4923 356.737 97.0107 356.645 98.7686C354.928 98.7479 353.604 98.7379 352.676 98.7379C351.306 98.7379 349.767 98.7737 348.066 98.8447L347.887 102.472H349.604C350.114 102.472 351.163 102.457 352.753 102.426L355.84 102.35C356.299 102.345 357.063 102.304 358.138 102.233C358.021 103.705 357.919 105.228 357.837 106.803C355.412 106.783 352.753 106.772 349.859 106.772L343.292 106.788L341.172 106.803ZM378.981 101.83C378.864 102.416 378.716 103.236 378.548 104.286C378.379 105.336 378.268 106.151 378.206 106.726C376.077 107.037 374.176 107.19 372.506 107.19C370.89 107.19 369.392 106.986 368.001 106.584C366.616 106.181 365.342 105.519 364.18 104.602C363.024 103.68 362.193 102.599 361.699 101.357C361.2 100.108 360.95 98.7171 360.95 97.1734C360.95 95.3753 361.287 93.755 361.959 92.3182C362.632 90.8813 363.595 89.6791 364.853 88.7214C366.111 87.7582 367.492 87.0755 368.995 86.6629C370.498 86.2502 372.047 86.0417 373.652 86.0417C375.124 86.0417 376.943 86.2301 379.113 86.607L379.144 87.8605C379.164 88.4106 379.195 89.0117 379.23 89.6691L379.337 91.3705C378.176 91.0903 377.233 90.9019 376.51 90.8002C375.786 90.7034 375.119 90.6521 374.503 90.6521C373.162 90.6521 371.95 90.9221 370.875 91.4571C369.805 91.9973 368.959 92.7766 368.343 93.8009C367.726 94.8251 367.415 95.9613 367.415 97.2042C367.415 98.3402 367.675 99.3086 368.19 100.124C368.71 100.933 369.408 101.56 370.289 102.003C371.17 102.447 372.256 102.666 373.55 102.666C374.253 102.666 375.022 102.61 375.852 102.493C376.683 102.38 377.728 102.156 378.981 101.83ZM381.889 106.803C382.465 98.8143 382.756 92.6647 382.756 88.3546L382.74 86.4286C384.483 86.4493 385.644 86.4593 386.23 86.4593C386.5 86.4593 387.57 86.4486 389.44 86.4286C389.262 88.6655 389.119 90.7846 389.007 92.7871C388.869 95.5738 388.773 98.1775 388.712 100.602C388.651 103.023 388.625 105.091 388.625 106.803L385.563 106.772C384.967 106.772 383.739 106.783 381.889 106.803ZM392.1 106.487C391.967 104.367 391.82 102.671 391.651 101.397C392.767 101.897 393.761 102.243 394.632 102.437C395.498 102.63 396.262 102.727 396.919 102.727C397.786 102.727 398.478 102.599 398.988 102.345C399.502 102.095 399.757 101.718 399.757 101.219C399.757 101.051 399.732 100.888 399.681 100.735C399.635 100.582 399.538 100.409 399.4 100.21C399.258 100.016 399.059 99.8078 398.804 99.5781L395.997 97.1326C395.34 96.5723 394.881 96.1698 394.622 95.9205C394.097 95.4161 393.684 94.9421 393.394 94.5037C393.098 94.0659 392.884 93.6226 392.752 93.1691C392.614 92.7157 392.548 92.2366 392.548 91.7273C392.548 91.1211 392.655 90.5251 392.869 89.9442C393.083 89.3633 393.404 88.8182 393.832 88.3089C394.26 87.8041 394.825 87.3662 395.534 86.9943C396.237 86.6275 396.996 86.3777 397.801 86.2453C398.606 86.1077 399.436 86.0417 400.292 86.0417C401.973 86.0417 403.802 86.2351 405.784 86.6221C405.815 87.3102 405.851 87.9366 405.886 88.5123C405.927 89.0831 406.024 90.0867 406.172 91.5186C405.254 91.1514 404.424 90.8969 403.665 90.7493C402.911 90.6062 402.259 90.5351 401.714 90.5351C400.939 90.5351 400.292 90.6778 399.783 90.9679C399.268 91.2535 399.014 91.6153 399.014 92.0431C399.014 92.2417 399.054 92.4355 399.13 92.6239C399.212 92.8125 399.36 93.0315 399.579 93.2865C399.798 93.5409 400.088 93.821 400.445 94.1218C400.802 94.4277 401.367 94.8761 402.132 95.4721L403.206 96.323C403.522 96.5825 403.864 96.8983 404.236 97.2651C404.602 97.6323 404.918 97.9937 405.188 98.3554C405.458 98.7121 405.662 99.0435 405.81 99.3387C405.953 99.6395 406.059 99.9398 406.131 100.241C406.197 100.546 406.233 100.872 406.233 101.219C406.233 102.116 406.019 102.966 405.591 103.781C405.163 104.592 404.556 105.259 403.772 105.778C402.982 106.304 402.121 106.665 401.178 106.874C400.241 107.083 399.248 107.19 398.203 107.19C396.593 107.19 394.555 106.955 392.1 106.487ZM406.503 106.803L407.741 104.653L415.46 90.1175L416.28 88.4871C416.519 88.0131 416.85 87.3254 417.278 86.4286C419.031 86.4493 420.31 86.4593 421.115 86.4593C422.521 86.4593 423.815 86.4486 425.012 86.4286L427.193 92.6547L431.625 104.622L432.491 106.803C430.769 106.783 429.725 106.772 429.358 106.772C428.522 106.772 427.295 106.783 425.669 106.803C425.231 105.162 424.6 103.231 423.774 101.015H416.249C415.383 102.768 414.486 104.693 413.559 106.803C411.71 106.783 410.579 106.772 410.161 106.772C409.402 106.772 408.184 106.783 406.503 106.803ZM418.058 96.6691H422.699C421.542 93.159 420.911 91.2229 420.804 90.8662C420.146 92.3282 419.586 93.5258 419.133 94.4634L418.058 96.6691ZM416.336 84.3857C416.376 83.1937 416.575 82.2817 416.942 81.6601C417.304 81.0383 417.854 80.7275 418.593 80.7275C418.807 80.7275 419.031 80.7582 419.255 80.8191C419.479 80.8751 419.663 80.9415 419.805 81.0131C419.953 81.0791 420.243 81.2423 420.681 81.4969C421.12 81.7467 421.4 81.9094 421.532 81.9709C421.66 82.0369 421.777 82.0827 421.884 82.1085C421.986 82.1337 422.088 82.1442 422.189 82.1442C422.317 82.1442 422.439 82.1185 422.546 82.0677C422.658 82.0218 422.75 81.925 422.821 81.7875C422.898 81.6445 422.954 81.4051 422.994 81.069C423.56 81.0993 423.978 81.1149 424.248 81.1149C424.518 81.1149 424.941 81.0993 425.517 81.069C425.517 82.2358 425.307 83.1373 424.895 83.7846C424.482 84.4315 423.901 84.7575 423.142 84.7575C422.913 84.7575 422.694 84.7322 422.485 84.6758C422.276 84.6199 422.072 84.5434 421.874 84.4366C421.675 84.3347 421.354 84.1514 420.911 83.8914C420.467 83.6314 420.162 83.4687 419.994 83.3971C419.826 83.3311 419.663 83.2954 419.5 83.2954C419.342 83.2954 419.199 83.3413 419.077 83.4379C418.954 83.5297 418.873 83.6365 418.837 83.7589C418.802 83.8763 418.771 84.0849 418.74 84.3857C418.195 84.3549 417.778 84.3398 417.502 84.3398C417.242 84.3398 416.855 84.3549 416.336 84.3857Z" fill="#DD001D"></path><path fill-rule="evenodd" clip-rule="evenodd" d="M446.385 86.0417C447.974 86.0417 449.508 86.2553 450.98 86.6836C452.453 87.1113 453.742 87.794 454.847 88.7367C455.948 89.6743 456.773 90.7595 457.323 91.9822C457.869 93.205 458.144 94.6111 458.144 96.2056C458.144 97.8768 457.843 99.4104 457.242 100.811C456.641 102.208 455.769 103.395 454.638 104.367C453.502 105.346 452.147 106.059 450.578 106.513C449.003 106.966 447.368 107.19 445.666 107.19C443.985 107.19 442.375 106.971 440.832 106.528C439.287 106.084 437.948 105.366 436.812 104.377C435.671 103.384 434.86 102.284 434.386 101.071C433.908 99.8588 433.668 98.5085 433.668 97.0259C433.668 94.8453 434.173 92.935 435.181 91.289C436.195 89.6384 437.688 88.3547 439.675 87.4272C441.662 86.5052 443.898 86.0417 446.385 86.0417ZM446.115 90.5352C444.973 90.5352 443.939 90.8154 443.012 91.3807C442.09 91.9414 441.377 92.7208 440.877 93.7194C440.383 94.723 440.133 95.7931 440.133 96.9392C440.133 97.9938 440.358 98.957 440.811 99.8331C441.265 100.709 441.952 101.392 442.88 101.886C443.802 102.38 444.78 102.625 445.814 102.625C446.92 102.625 447.933 102.35 448.851 101.794C449.773 101.244 450.471 100.47 450.955 99.4663C451.439 98.4678 451.678 97.4234 451.678 96.328C451.678 95.2631 451.454 94.2796 451.006 93.3783C450.557 92.4764 449.905 91.7782 449.039 91.279C448.173 90.7847 447.2 90.5352 446.115 90.5352Z" fill="#DD001D"></path><path fill-rule="evenodd" clip-rule="evenodd" d="M166.729 14.5379C167.477 14.4221 168.172 14.3595 168.823 14.3595H174.018C176.282 14.3595 178.26 14.7516 179.944 15.5359C181.638 16.3203 183.26 17.5499 184.81 19.2432C185.764 20.2501 186.575 21.5336 187.252 23.0929C187.92 24.6527 188.411 26.1407 188.722 27.5577C189.034 28.9748 189.195 29.9817 189.195 30.57V34.8028C189.195 35.7387 189.043 36.9419 188.74 38.3944C188.428 39.8469 187.956 41.3619 187.314 42.9392C186.664 44.5077 185.889 45.8801 184.989 47.0475C183.402 49.0971 181.54 50.7816 179.392 52.0826C177.253 53.3926 175.186 54.1857 173.198 54.462L171.657 54.6937C170.997 54.7651 170.489 54.8185 170.124 54.8363C169.758 54.8631 169.286 54.8987 168.698 54.9344C168.119 54.97 167.647 54.9967 167.281 55.0145C165.401 55.1481 164.162 55.2195 163.565 55.2195H158.869C158.013 55.2195 156.908 55.1481 155.553 55.0145C154.19 54.8719 153.121 54.8008 152.336 54.8008C152.131 54.8008 151.944 54.8102 151.793 54.8186C151.632 54.8279 151.454 54.8363 151.267 54.8541C150.536 54.8899 149.752 54.9612 148.914 55.0591C148.076 55.1661 147.684 55.2195 147.738 55.2195H144.913L145.332 54.5156C146.098 53.2411 146.668 52.0557 147.051 50.942C147.577 49.5072 147.836 48.3041 147.836 47.306V29.9727V28.2797C147.836 24.4296 147.515 21.4355 146.873 19.2968C146.553 18.2363 146.045 17.0241 145.332 15.6607L144.726 14.3595L147.051 14.8052H164.483C164.759 14.8052 165.107 14.7696 165.517 14.6983C165.926 14.6271 166.327 14.5735 166.729 14.5379ZM158.931 50.3628C159.59 50.6745 160.375 50.924 161.283 51.1024C162.183 51.2896 162.843 51.3964 163.262 51.432H164.75C165.615 51.432 166.729 51.1469 168.074 50.5855C169.42 50.0152 170.774 49.231 172.138 48.2328C173.51 47.2347 174.696 46.1119 175.703 44.8552C177.021 43.1709 178.011 41.3351 178.652 39.3568C179.294 37.3872 179.615 35.4892 179.615 33.6801V32.2185C179.615 31.372 179.436 30.3383 179.08 29.144C178.724 27.9408 178.198 26.7377 177.503 25.5259C176.808 24.3137 175.979 23.2624 175.025 22.3532C173.787 21.1683 172.28 20.2145 170.489 19.484C168.698 18.7529 167.139 18.3877 165.82 18.3877C165.401 18.3877 165.044 18.4412 164.75 18.548C164.554 18.548 163.707 18.8333 162.193 19.4036C161.515 19.6708 160.989 19.876 160.615 20.0364C160.241 20.1879 159.964 20.3127 159.777 20.4017C159.599 20.4819 159.492 20.5621 159.483 20.6335C158.886 20.9097 158.476 21.3287 158.245 21.8811C158.004 22.4424 157.844 23.1555 157.755 24.0288C157.674 24.8931 157.603 25.7219 157.55 26.5063C157.389 27.7895 157.282 29.2865 157.22 30.9799C157.166 32.6819 157.131 33.7515 157.131 34.2059L157.184 39.5529V41.0411C157.184 43.0996 157.3 45.0692 157.541 46.9675C157.772 48.8653 158.236 49.9972 158.931 50.3628ZM204.442 37.5121L204.336 39.9183C204.336 40.444 204.38 41.5848 204.451 43.3672C204.532 45.1405 204.674 46.8071 204.888 48.3755C205.04 49.6853 205.182 50.7014 205.307 51.432C205.423 52.163 205.645 53.0004 205.958 53.9363L206.323 55.0057L204.576 54.9076C204.612 54.9076 203.979 54.8541 202.696 54.7472C201.404 54.6401 200.37 54.5868 199.586 54.5868C199.291 54.5868 198.962 54.6136 198.597 54.6582C198.231 54.7027 197.919 54.7383 197.67 54.774C197.42 54.8096 197.171 54.8363 196.939 54.8631C196.698 54.8899 196.565 54.9076 196.529 54.9076L194.337 55.1661L194.577 54.0431C195.183 50.8261 195.513 46.9761 195.567 42.5027C195.567 41.1481 195.567 40.0877 195.557 39.33C195.548 38.5725 195.54 37.8151 195.531 37.0577C195.521 36.3 195.513 35.2308 195.513 33.8315V29.0816C195.531 28.7876 195.548 28.4847 195.557 28.1639C195.567 27.8517 195.567 27.2101 195.567 26.2388C195.567 23.1555 195.344 20.7848 194.889 19.1364C194.559 18.0401 194.034 16.8192 193.321 15.4825L192.643 14.1991L194.132 14.4131C195.246 14.4933 196.386 14.5557 197.554 14.5912C198.713 14.6271 199.782 14.6625 200.735 14.6893C201.689 14.7161 202.758 14.7339 203.917 14.7516H205.093C206.278 14.7516 207.856 14.6448 209.816 14.4221C211.786 14.1991 213.577 14.0923 215.199 14.0923H218.255C219.887 14.0923 221.259 14.2884 222.355 14.6893C223.451 15.0904 224.449 15.8033 225.358 16.8371C226.784 18.468 227.497 20.2413 227.497 22.1573V23.8861C227.497 25.1516 227.319 26.2924 226.962 27.2905C226.606 28.2884 226.036 29.3311 225.251 30.4096C224.779 31.06 224.235 31.6572 223.603 32.2097C222.979 32.7709 222.382 33.2076 221.829 33.5197L220.181 34.2504C219.432 34.6515 219.058 35.0259 219.058 35.3733C219.058 35.5961 219.156 35.792 219.334 35.9436C219.521 36.104 219.69 36.2555 219.842 36.3893C220.902 37.2091 221.606 37.8151 221.936 38.2163C222.417 38.7952 222.881 39.4191 223.317 40.0877C223.754 40.756 224.119 41.3531 224.431 41.8788C224.734 42.3957 225.064 42.9751 225.421 43.5985C225.777 44.2224 225.991 44.6057 226.062 44.7484L227.078 46.5485C227.185 46.6912 227.488 47.0833 228.005 47.7248C228.513 48.3664 229.101 49.026 229.769 49.6944C230.429 50.3628 231.044 50.8886 231.623 51.2716C232.051 51.5568 232.648 51.8508 233.397 52.1629C234.145 52.4747 234.626 52.6887 234.831 52.8135L235.847 53.3392L235.402 53.7313C235.303 53.8027 234.876 53.9272 234.127 54.1235C233.379 54.3107 232.612 54.4711 231.828 54.5868C230.768 54.7295 229.377 54.8008 227.649 54.8008H225.848C223.433 54.8008 221.579 54.0344 220.287 52.5015C219.824 51.9312 219.414 51.3875 219.075 50.8708C218.737 50.3538 218.318 49.6499 217.819 48.7585C217.329 47.8585 216.901 47.0833 216.544 46.4327C216.188 45.7821 215.876 45.2741 215.618 44.8997L214.78 43.6253C213.737 41.7093 212.775 40.3904 211.884 39.6597C210.226 38.2963 208.765 37.6189 207.499 37.6189L204.442 37.5121ZM204.282 34.3575H205.85C206.528 34.3575 207.713 34.2236 209.406 33.9473C211.091 33.6801 212.454 33.1812 213.497 32.4503C214.664 31.5769 215.636 30.4897 216.402 29.1885C217.168 27.8785 217.552 26.7377 217.552 25.7667V24.198C217.552 22.6295 217.177 21.4087 216.429 20.5176C216.01 19.9829 215.431 19.5372 214.7 19.1987C213.969 18.8601 213.265 18.6104 212.57 18.4589C211.884 18.2985 211.483 18.2183 211.358 18.2183H210.137C209.558 18.2183 208.898 18.3967 208.159 18.7443C207.419 19.0919 206.759 19.7156 206.163 20.6244C205.396 21.792 204.897 22.7899 204.648 23.6277C204.407 24.4655 204.282 25.0803 204.282 25.4813V32.5573V34.3575ZM264.739 42.2709H263.723H253.35H252.485L252.022 43.8929C251.933 44.1333 251.728 44.7484 251.407 45.7465C251.086 46.7357 250.863 47.4753 250.739 47.9653C250.507 48.7763 250.133 49.8903 249.598 51.3073C249.072 52.7155 248.805 53.4105 248.805 53.3925L248.751 55.2195H247.94C246.461 55.0057 245.178 54.9076 244.099 54.9076C243.235 54.9076 242.121 55.0057 240.784 55.2195H239.608L240.891 52.2697C240.989 52.0557 241.47 50.9331 242.326 48.8744C243.181 46.8248 243.975 44.8911 244.705 43.0819C245.436 41.264 246.265 39.1428 247.183 36.7101C248.279 33.9208 249.126 31.7641 249.723 30.2312C250.311 28.6985 251.059 26.6577 251.968 24.0911L252.753 21.8988C253.323 20.6335 253.608 19.4749 253.608 18.4323C253.564 17.8887 253.448 17.434 253.27 17.0687C253.1 16.7033 252.797 16.2489 252.387 15.6875C251.968 15.1349 251.71 14.7784 251.63 14.6448L251.104 13.8337L253.243 14.1991C253.973 14.3063 255.818 14.3595 258.759 14.3595C260.675 14.3595 262.243 14.324 263.464 14.2527H265.051L265.345 15.9728C265.345 16.1151 265.657 17.3363 266.28 19.6353C266.913 21.9256 267.635 24.4387 268.455 27.1479C269.266 29.8659 270.05 32.2631 270.799 34.3575C271.431 36.0772 272.251 38.1627 273.258 40.5956C274.265 43.0373 275.255 45.2473 276.226 47.2256C277.188 49.2129 277.973 50.6836 278.561 51.637L280.521 55.0057H279.559C279.033 55.0057 278.195 54.9432 277.037 54.8273C275.878 54.7027 274.863 54.6401 273.989 54.6401C273.624 54.6401 273.187 54.6581 272.67 54.6937C272.153 54.7295 271.663 54.7651 271.191 54.8008C270.727 54.8363 270.255 54.8719 269.783 54.9076H268.161L267.697 53.7847C267.154 51.2539 266.744 49.4715 266.468 48.4288C265.701 45.5413 265.256 43.9375 265.131 43.6253L264.739 42.2709ZM263.099 37.6724L262.6 36.2376C261.78 34.0812 261.219 32.5483 260.898 31.6392C260.711 31.0512 260.515 30.4719 260.327 29.9195C260.131 29.3579 259.935 28.7964 259.739 28.2352C259.534 27.6645 259.392 27.2457 259.303 26.9695C259.223 26.6932 259.178 26.5508 259.178 26.5508L258.545 24.9556L257.948 26.4437C257.948 26.4796 257.734 27.0676 257.307 28.2084C256.879 29.3489 256.469 30.4897 256.068 31.6392C255.872 32.1652 255.542 33.0117 255.079 34.188C254.606 35.3644 254.348 36.0417 254.321 36.2376L253.822 37.6724H263.099ZM293.497 32.7087C294.005 32.2811 294.637 31.666 295.413 30.8817C296.188 30.0976 296.919 29.3489 297.623 28.636C301.811 24.4477 304.815 21.3641 306.641 19.3945C307.337 18.6193 308.887 16.9528 311.284 14.4131L311.971 14.5467C312.434 14.5825 312.844 14.6092 313.192 14.6357C313.539 14.6625 313.905 14.6893 314.288 14.7251C314.671 14.7607 315.063 14.7873 315.464 14.8052C316.052 14.8052 316.81 14.7696 317.719 14.6983C318.628 14.6271 319.429 14.5825 320.107 14.5467L321.435 14.4131L320.312 15.5359C320.241 15.6429 318.904 16.8548 316.293 19.1809C313.682 21.4977 311.81 23.1911 310.678 24.2515C309.912 25.0001 309.101 25.8021 308.254 26.64C307.399 27.4864 306.615 28.2619 305.884 28.9657C305.162 29.67 304.503 30.2937 303.888 30.8372L302.979 31.6928C302.703 31.8887 302.444 32.0671 302.221 32.2275C301.99 32.3967 301.811 32.566 301.687 32.7355C301.553 32.9136 301.49 33.1099 301.49 33.3416C301.49 33.5107 301.535 33.6623 301.615 33.796C301.704 33.9296 301.811 34.0544 301.945 34.1791C302.079 34.2949 302.212 34.4375 302.355 34.5892C302.524 34.8919 303.371 35.8813 304.895 37.5656C306.419 39.2587 307.907 40.9164 309.351 42.5561C311.641 45.0601 313.789 47.3683 315.767 49.4715C317.754 51.5836 319.109 52.9471 319.84 53.571L321.595 55.0057L319.243 55.1125C318.877 55.1125 318.164 55.068 317.095 54.979C316.025 54.8987 315.063 54.8541 314.208 54.8541C313.789 54.8541 313.494 54.8635 313.325 54.881C313.147 54.8987 312.933 54.9164 312.675 54.9344C312.407 54.9522 312.051 54.97 311.605 55.0057L309.565 55.2195L308.237 53.7313C307.346 52.8045 306.561 51.9221 305.866 51.0667C305.171 50.2111 304.44 49.3202 303.674 48.3932C302.907 47.4574 302.097 46.5663 301.25 45.7108C300.519 44.9176 299.824 44.1156 299.156 43.3136C298.496 42.5116 297.926 41.8075 297.454 41.2104C296.972 40.6133 296.491 39.9896 296.001 39.348C295.52 38.6975 295.225 38.3585 295.145 38.3231L293.916 37.1023V41.0945C293.916 43.162 294.049 45.3364 294.308 47.6177C294.637 50.6659 294.931 52.7867 295.199 53.9899L295.636 55.2195L294.121 55.1125C293.559 55.0771 293.033 55.0412 292.534 54.9967C292.044 54.9521 291.572 54.9164 291.126 54.8899C290.681 54.8631 290.271 54.8541 289.905 54.8541C289.682 54.8541 289.397 54.8719 289.041 54.9076C288.693 54.9432 288.319 54.9789 287.909 55.0323C287.499 55.0857 287.232 55.1125 287.107 55.1125L285.013 55.2195L285.12 53.1788C285.155 52.5551 285.2 51.8776 285.253 51.1558C285.307 50.4342 285.352 49.7655 285.396 49.1507C285.441 48.5359 285.476 47.7961 285.512 46.9407C285.547 45.7465 285.574 43.8303 285.592 41.2104C285.61 38.5903 285.619 36.5229 285.619 35.0077L285.512 29.9727C285.458 27.4509 285.316 24.9111 285.066 22.3445C284.995 21.6493 284.826 20.3572 284.558 18.4589C284.291 16.5608 284.157 15.5716 284.157 15.4825L283.89 14.3595L285.12 14.5467C287.045 14.7161 288.524 14.8052 289.576 14.8052C290.039 14.8052 290.556 14.7873 291.099 14.7516C291.652 14.7161 292.285 14.6805 292.998 14.6448L295.199 14.5379L294.931 15.3755C294.727 16.0885 294.584 16.7389 294.513 17.3363C294.45 17.9243 294.361 18.6997 294.272 19.6531C294.174 20.6157 294.058 21.792 293.916 23.182C293.827 24.59 293.764 25.5704 293.72 26.1143C293.675 26.6667 293.63 27.3796 293.577 28.2439C293.523 29.1172 293.497 29.6432 293.497 29.8123V32.7087ZM335.426 32.7087C335.934 32.2811 336.567 31.666 337.342 30.8817C338.118 30.0976 338.848 29.3489 339.552 28.636C343.741 24.4477 346.744 21.3641 348.571 19.3945C349.266 18.6193 350.817 16.9528 353.214 14.4131L353.9 14.5467C354.363 14.5825 354.773 14.6092 355.121 14.6357C355.469 14.6625 355.834 14.6893 356.217 14.7251C356.6 14.7607 356.993 14.7873 357.393 14.8052C357.982 14.8052 358.739 14.7696 359.648 14.6983C360.557 14.6271 361.359 14.5825 362.036 14.5467L363.364 14.4131L362.241 15.5359C362.17 15.6429 360.833 16.8548 358.222 19.1809C355.611 21.4977 353.739 23.1911 352.608 24.2515C351.842 25.0001 351.031 25.8021 350.184 26.64C349.328 27.4864 348.544 28.2619 347.813 28.9657C347.091 29.67 346.432 30.2937 345.817 30.8372L344.908 31.6928C344.632 31.8887 344.373 32.0671 344.151 32.2275C343.919 32.3967 343.741 32.566 343.616 32.7355C343.482 32.9136 343.42 33.1099 343.42 33.3416C343.42 33.5107 343.464 33.6623 343.545 33.796C343.634 33.9296 343.741 34.0544 343.874 34.1791C344.008 34.2949 344.142 34.4375 344.284 34.5892C344.454 34.8919 345.3 35.8813 346.824 37.5656C348.348 39.2587 349.836 40.9164 351.28 42.5561C353.57 45.0601 355.718 47.3683 357.696 49.4715C359.684 51.5836 361.038 52.9471 361.769 53.571L363.525 55.0057L361.172 55.1125C360.806 55.1125 360.093 55.068 359.024 54.979C357.955 54.8987 356.993 54.8541 356.137 54.8541C355.718 54.8541 355.424 54.8635 355.255 54.881C355.077 54.8987 354.863 54.9164 354.604 54.9344C354.337 54.9522 353.98 54.97 353.535 55.0057L351.494 55.2195L350.166 53.7313C349.275 52.8045 348.491 51.9221 347.796 51.0667C347.101 50.2111 346.37 49.3202 345.603 48.3932C344.837 47.4574 344.026 46.5663 343.179 45.7108C342.449 44.9176 341.753 44.1156 341.085 43.3136C340.426 42.5116 339.855 41.8075 339.383 41.2104C338.902 40.6133 338.421 39.9896 337.93 39.348C337.449 38.6975 337.155 38.3585 337.075 38.3231L335.845 37.1023V41.0945C335.845 43.162 335.979 45.3364 336.237 47.6177C336.567 50.6659 336.861 52.7867 337.128 53.9899L337.565 55.2195L336.05 55.1125C335.489 55.0771 334.963 55.0412 334.464 54.9967C333.973 54.9521 333.501 54.9164 333.056 54.8899C332.61 54.8631 332.2 54.8541 331.835 54.8541C331.612 54.8541 331.327 54.8719 330.97 54.9076C330.623 54.9432 330.248 54.9789 329.839 55.0323C329.429 55.0857 329.161 55.1125 329.037 55.1125L326.942 55.2195L327.049 53.1788C327.085 52.5551 327.129 51.8776 327.183 51.1558C327.236 50.4342 327.281 49.7655 327.325 49.1507C327.37 48.5359 327.406 47.7961 327.441 46.9407C327.477 45.7465 327.504 43.8303 327.522 41.2104C327.539 38.5903 327.548 36.5229 327.548 35.0077L327.441 29.9727C327.388 27.4509 327.245 24.9111 326.996 22.3445C326.924 21.6493 326.755 20.3572 326.488 18.4589C326.221 16.5608 326.087 15.5716 326.087 15.4825L325.819 14.3595L327.049 14.5467C328.974 14.7161 330.454 14.8052 331.505 14.8052C331.968 14.8052 332.485 14.7873 333.029 14.7516C333.581 14.7161 334.214 14.6805 334.927 14.6448L337.128 14.5379L336.861 15.3755C336.656 16.0885 336.513 16.7389 336.442 17.3363C336.38 17.9243 336.291 18.6997 336.202 19.6531C336.103 20.6157 335.988 21.792 335.845 23.182C335.756 24.59 335.694 25.5704 335.649 26.1143C335.605 26.6667 335.56 27.3796 335.506 28.2439C335.453 29.1172 335.426 29.6432 335.426 29.8123V32.7087ZM393.299 42.2709H392.283H381.909H381.045L380.582 43.8929C380.492 44.1333 380.287 44.7484 379.967 45.7465C379.646 46.7357 379.423 47.4753 379.298 47.9653C379.067 48.7763 378.692 49.8903 378.158 51.3073C377.632 52.7155 377.365 53.4105 377.365 53.3925L377.311 55.2195H376.5C375.021 55.0057 373.737 54.9076 372.659 54.9076C371.795 54.9076 370.681 55.0057 369.344 55.2195H368.168L369.451 52.2697C369.549 52.0557 370.03 50.9331 370.886 48.8744C371.741 46.8248 372.534 44.8911 373.265 43.0819C373.996 41.264 374.825 39.1428 375.743 36.7101C376.839 33.9208 377.685 31.7641 378.282 30.2312C378.871 28.6985 379.619 26.6577 380.528 24.0911L381.312 21.8988C381.883 20.6335 382.168 19.4749 382.168 18.4323C382.123 17.8887 382.007 17.434 381.829 17.0687C381.66 16.7033 381.357 16.2489 380.947 15.6875C380.528 15.1349 380.27 14.7784 380.19 14.6448L379.664 13.8337L381.803 14.1991C382.533 14.3063 384.378 14.3595 387.319 14.3595C389.235 14.3595 390.803 14.324 392.024 14.2527H393.611L393.905 15.9728C393.905 16.1151 394.216 17.3363 394.84 19.6353C395.473 21.9256 396.195 24.4387 397.015 27.1479C397.826 29.8659 398.61 32.2631 399.359 34.3575C399.991 36.0772 400.811 38.1627 401.818 40.5956C402.825 43.0373 403.814 45.2473 404.786 47.2256C405.748 49.2129 406.532 50.6836 407.121 51.637L409.081 55.0057H408.119C407.593 55.0057 406.755 54.9432 405.597 54.8273C404.438 54.7027 403.422 54.6401 402.549 54.6401C402.183 54.6401 401.747 54.6581 401.23 54.6937C400.713 54.7295 400.223 54.7651 399.751 54.8008C399.287 54.8363 398.815 54.8719 398.343 54.9076H396.721L396.257 53.7847C395.713 51.2539 395.304 49.4715 395.027 48.4288C394.261 45.5413 393.815 43.9375 393.691 43.6253L393.299 42.2709ZM391.659 37.6724L391.16 36.2376C390.34 34.0812 389.778 32.5483 389.457 31.6392C389.27 31.0512 389.074 30.4719 388.887 29.9195C388.691 29.3579 388.495 28.7964 388.299 28.2352C388.094 27.6645 387.952 27.2457 387.862 26.9695C387.782 26.6932 387.738 26.5508 387.738 26.5508L387.105 24.9556L386.508 26.4437C386.508 26.4796 386.294 27.0676 385.866 28.2084C385.438 29.3489 385.029 30.4897 384.627 31.6392C384.431 32.1652 384.102 33.0117 383.638 34.188C383.166 35.3644 382.908 36.0417 382.881 36.2376L382.382 37.6724H391.659ZM423.785 37.5121L423.678 39.9183C423.678 40.444 423.723 41.5848 423.794 43.3672C423.875 45.1405 424.017 46.8071 424.231 48.3755C424.383 49.6853 424.525 50.7014 424.65 51.432C424.766 52.163 424.988 53.0004 425.3 53.9363L425.666 55.0057L423.919 54.9076C423.955 54.9076 423.322 54.8541 422.039 54.7472C420.747 54.6401 419.713 54.5868 418.929 54.5868C418.634 54.5868 418.305 54.6136 417.939 54.6582C417.574 54.7027 417.262 54.7383 417.013 54.774C416.763 54.8096 416.513 54.8363 416.282 54.8631C416.041 54.8899 415.907 54.9076 415.872 54.9076L413.68 55.1661L413.92 54.0431C414.526 50.8261 414.856 46.9761 414.909 42.5027C414.909 41.1481 414.909 40.0877 414.9 39.33C414.891 38.5725 414.882 37.8151 414.873 37.0577C414.864 36.3 414.856 35.2308 414.856 33.8315V29.0816C414.873 28.7876 414.891 28.4847 414.9 28.1639C414.909 27.8517 414.909 27.2101 414.909 26.2388C414.909 23.1555 414.686 20.7848 414.232 19.1364C413.902 18.0401 413.377 16.8192 412.664 15.4825L411.986 14.1991L413.475 14.4131C414.589 14.4933 415.729 14.5557 416.897 14.5912C418.055 14.6271 419.125 14.6625 420.078 14.6893C421.032 14.7161 422.101 14.7339 423.259 14.7516H424.436C425.621 14.7516 427.199 14.6448 429.159 14.4221C431.128 14.1991 432.92 14.0923 434.542 14.0923H437.598C439.229 14.0923 440.602 14.2884 441.698 14.6893C442.794 15.0904 443.792 15.8033 444.701 16.8371C446.127 18.468 446.84 20.2413 446.84 22.1573V23.8861C446.84 25.1516 446.662 26.2924 446.305 27.2905C445.949 28.2884 445.378 29.3311 444.594 30.4096C444.122 31.06 443.578 31.6572 442.945 32.2097C442.322 32.7709 441.725 33.2076 441.172 33.5197L439.523 34.2504C438.775 34.6515 438.401 35.0259 438.401 35.3733C438.401 35.5961 438.498 35.792 438.677 35.9436C438.864 36.104 439.033 36.2555 439.185 36.3893C440.245 37.2091 440.949 37.8151 441.279 38.2163C441.76 38.7952 442.223 39.4191 442.66 40.0877C443.097 40.756 443.462 41.3531 443.774 41.8788C444.077 42.3957 444.407 42.9751 444.763 43.5985C445.12 44.2224 445.334 44.6057 445.405 44.7484L446.421 46.5485C446.528 46.6912 446.831 47.0833 447.348 47.7248C447.856 48.3664 448.444 49.026 449.112 49.6944C449.772 50.3628 450.387 50.8886 450.966 51.2716C451.394 51.5568 451.991 51.8508 452.739 52.1629C453.488 52.4747 453.969 52.6887 454.174 52.8135L455.19 53.3392L454.744 53.7313C454.646 53.8027 454.219 53.9272 453.47 54.1235C452.722 54.3107 451.955 54.4711 451.171 54.5868C450.11 54.7295 448.72 54.8008 446.991 54.8008H445.191C442.776 54.8008 440.922 54.0344 439.63 52.5015C439.167 51.9312 438.757 51.3875 438.418 50.8708C438.08 50.3538 437.661 49.6499 437.162 48.7585C436.672 47.8585 436.244 47.0833 435.887 46.4327C435.531 45.7821 435.219 45.2741 434.961 44.8997L434.123 43.6253C433.08 41.7093 432.118 40.3904 431.227 39.6597C429.569 38.2963 428.107 37.6189 426.842 37.6189L423.785 37.5121ZM423.625 34.3575H425.193C425.871 34.3575 427.056 34.2236 428.749 33.9473C430.434 33.6801 431.797 33.1812 432.839 32.4503C434.007 31.5769 434.978 30.4897 435.745 29.1885C436.511 27.8785 436.894 26.7377 436.894 25.7667V24.198C436.894 22.6295 436.52 21.4087 435.771 20.5176C435.353 19.9829 434.773 19.5372 434.043 19.1987C433.312 18.8601 432.608 18.6104 431.913 18.4589C431.227 18.2985 430.826 18.2183 430.701 18.2183H429.48C428.901 18.2183 428.241 18.3967 427.502 18.7443C426.762 19.0919 426.102 19.7156 425.505 20.6244C424.739 21.792 424.24 22.7899 423.99 23.6277C423.75 24.4655 423.625 25.0803 423.625 25.4813V32.5573V34.3575Z" fill="#DD001D"></path><path fill-rule="evenodd" clip-rule="evenodd" d="M43.4486 64.96C55.1238 63.2488 65.9652 61.6136 76.0285 60.0733C85.4349 58.6346 94.2535 57.2332 102.492 55.9106C104.144 55.6396 105.828 55.0996 107.502 54.3324C109.488 53.1929 111.148 51.6953 112.589 49.8794C114.004 48.097 115.043 46.1486 115.779 44.0941C117.398 37.8296 116.108 31.7877 117.041 25.4994C117.287 24.1554 117.624 22.9574 118.135 22.0829C118.56 21.4641 119.023 20.9769 119.559 20.6377C120.307 20.3624 120.925 20.4396 121.271 21.2581C121.333 21.6698 121.31 22.1074 121.051 22.5525C120.882 22.9154 120.619 23.038 120.28 22.8884C120.058 22.5718 119.988 22.2293 120.052 21.9028C119.679 21.7373 119.369 21.8145 119.181 22.4225C119.059 23.0465 119.157 23.6469 119.665 24.1389C120.108 24.4306 120.622 24.4677 121.191 24.2648C121.476 24.0862 121.767 23.8382 122.091 23.4212C122.53 22.8826 122.788 22.1165 122.835 21.2604C122.789 20.1493 122.485 19.2648 121.982 18.6825C120.949 17.9301 119.939 18.2421 118.944 18.7594C118.135 19.53 117.487 20.197 116.979 21.0436C116.219 22.4924 115.545 23.9789 115.152 25.5493C113.961 29.3804 113.728 34.1002 113.145 38.1118C112.604 39.4224 111.74 40.562 110.474 41.4844C108.923 42.1841 107.261 42.674 105.352 42.7232C101.541 43.117 97.6049 43.5233 93.5414 43.9366C88.7217 34.3141 87.9162 23.9068 96.5022 13.334C90.7289 11.3845 84.6782 9.34916 78.244 7.31596C77.4073 7.05169 76.5645 6.78649 75.7154 6.52009C75.7514 4.77849 75.7868 3.0265 75.8218 1.2645C74.7101 0.655431 73.595 0.43543 72.4117 1.0457C72.3806 2.52316 72.349 3.99516 72.317 5.46036C67.348 3.92023 62.1723 2.36196 56.7863 0.837425C45.0629 13.4853 46.7913 27.1893 56.215 40.1088C61.5006 41.0126 66.5658 41.8846 71.439 42.7054C71.4117 43.8465 71.3843 44.9836 71.3583 46.1157C58.1797 47.3554 43.6442 48.6472 27.6465 50.0206C23.9085 50.2197 20.4101 49.6518 18.1952 46.4485C16.32 40.6405 17.4872 35.3938 16.9153 29.8761C16.3945 25.8364 15.3898 23.3184 12.4364 20.0406C10.0813 17.2856 7.16822 16.4388 3.65302 17.5405C0.412749 19.168 -0.851384 21.4709 1.56835 24.9057C4.07968 27.0136 6.23475 27.1362 8.07728 25.2713C8.42701 24.3665 8.50928 23.516 7.93502 22.8486C7.26542 22.2797 6.62035 22.2112 6.01795 22.6678C5.72222 23.1581 5.93675 23.7114 5.25089 24.1685C4.38382 24.2432 3.62982 23.857 3.25608 23.0414C3.25022 21.1648 4.64035 20.2596 6.72995 20.2314C9.95848 20.5269 10.8546 23.1678 11.7427 25.9842C12.7303 30.2109 12.5513 34.6822 11.7244 39.273C10.8546 45.2881 10.1035 50.3598 13.1957 57.0629C15.8551 61.5216 20.2899 64.8644 26.6321 66.3614C28.8373 66.6296 31.3985 66.463 34.0616 66.0856C37.2488 65.7114 40.3728 65.3429 43.4486 64.96ZM84.417 44.8536C81.2926 45.163 78.097 45.4752 74.83 45.787L74.8897 43.283C75.6212 43.4046 76.3478 43.5256 77.0708 43.6445C79.5697 44.056 82.0166 44.4596 84.417 44.8536Z" fill="#E30016"></path><path fill-rule="evenodd" clip-rule="evenodd" d="M44.6285 62.6104C55.5433 61.0793 65.6793 59.6173 75.0871 58.2389C83.8807 56.9512 92.1251 55.6986 99.8258 54.5161C101.371 54.2725 102.946 53.7898 104.51 53.1037C106.367 52.0834 107.919 50.7446 109.265 49.1193C110.583 47.5325 111.552 45.7985 112.239 43.9693L112.241 43.9626L15.1367 52.5013L15.1447 52.5272C15.4489 53.4973 15.8427 54.499 16.3478 55.5461C18.8339 59.5352 22.9797 62.5245 28.9086 63.8638C30.9706 64.1046 33.3651 63.9548 35.8537 63.6177C38.8335 63.2833 41.7538 62.9541 44.6285 62.6104Z" fill="#DD001D"></path><path fill-rule="evenodd" clip-rule="evenodd" d="M92.0822 14.6346C84.106 24.4566 85.6541 34.1098 90.7745 42.9104C85.9365 42.1376 80.88 41.3028 75.5475 40.4251C69.9512 39.5043 64.0593 38.4864 57.8012 37.4164C49.7833 26.4234 48.3134 14.7634 58.2885 4.00122C64.7241 5.82269 70.8068 7.69922 76.5454 9.51322C82.0202 11.244 87.1684 12.9754 92.0822 14.6346Z" fill="#DD001D"></path></svg>